<svg xmlns="http://www.w3.org/2000/svg" width="12" height="11" viewBox="0 0 12 11" fill="none">
    <path
        d="M3.41215 10.1893C3.03678 10.4276 2.56034 10.0942 2.65578 9.65989L3.28386 6.80173C3.32221 6.62723 3.26453 6.44553 3.13256 6.32509L1.00394 4.38251C0.682945 4.08957 0.862719 3.55481 1.29549 3.51526L4.06211 3.26247C4.24905 3.24539 4.41067 3.12504 4.48061 2.95084L5.536 0.322286C5.70394 -0.0959817 6.29606 -0.0959814 6.46399 0.322287L7.51938 2.95084C7.58932 3.12504 7.75095 3.24539 7.93788 3.26247L10.7045 3.51526C11.1373 3.55481 11.317 4.08957 10.9961 4.38251L8.86744 6.32509C8.73547 6.44553 8.67779 6.62723 8.71613 6.80173L9.34422 9.65989C9.43965 10.0942 8.96321 10.4276 8.58784 10.1893L6.26802 8.71623C6.10444 8.61236 5.89556 8.61236 5.73197 8.71623L3.41215 10.1893Z"
        fill="#F0C419" />
</svg>